Coordinates
version=1
nRows=6
nColumns=63
inDegrees=yes

Units are S.I. units (second, meters, Newtons, ...)
If the header above contains a line with 'inDegrees', this indicates whether rotational values are in degrees (yes) or radians (no).

endheader
time	pelvis_tilt	pelvis_list	pelvis_rotation	pelvis_tx	pelvis_ty	pelvis_tz	hip_flexion_r	hip_adduction_r	hip_rotation_r	knee_angle_r	knee_angle_r_beta	ankle_angle_r	subtalar_angle_r	mtp_angle_r	hip_flexion_l	hip_adduction_l	hip_rotation_l	knee_angle_l	knee_angle_l_beta	ankle_angle_l	subtalar_angle_l	mtp_angle_l	L5_S1_Flex_Ext	L5_S1_Lat_Bending	L5_S1_axial_rotation	L4_L5_Flex_Ext	L4_L5_Lat_Bending	L4_L5_axial_rotation	L3_L4_Flex_Ext	L3_L4_Lat_Bending	L3_L4_axial_rotation	L2_L3_Flex_Ext	L2_L3_Lat_Bending	L2_L3_axial_rotation	L1_L2_Flex_Ext	L1_L2_Lat_Bending	L1_L2_axial_rotation	L1_T12_Flex_Ext	L1_T12_Lat_Bending	L1_T12_axial_rotation	Abs_r3	Abs_r2	Abs_r1	Abs_t1	Abs_t2	neck_flexion	neck_bending	neck_rotation	arm_flex_r	arm_add_r	arm_rot_r	elbow_flex_r	pro_sup_r	wrist_flex_r	wrist_dev_r	arm_flex_l	arm_add_l	arm_rot_l	elbow_flex_l	pro_sup_l	wrist_flex_l	wrist_dev_l
1.118644	1.951614	-0.867371	88.775789	0.144452	0.884039	0.453611	5.698822	-4.678838	-23.390326	18.819139	0.328456	33.957862	18.797036	0.000000	7.589343	0.236517	1.573373	18.418962	0.321472	28.333476	-5.880929	0.000000	0.079464	-0.064347	0.909323	0.147572	-0.085582	0.966156	0.130551	-0.156454	0.966156	0.090819	-0.156454	0.795658	0.073790	-0.131217	0.738825	0.045406	-0.099674	0.681993	0.567602	-0.727911	5.057384	0.000000	0.000000	17.557543	2.276970	-13.591282	10.639664	-3.459316	167.333090	1.263034	5.827963	11.608559	-1.033048	7.818841	-28.023113	50.378205	111.812102	63.122495	-11.210675	33.898728
1.135593	1.852963	-0.801672	88.523903	0.145078	0.884213	0.452586	5.579889	-4.711245	-23.069549	18.753851	0.327316	34.023412	18.803328	0.000000	7.280935	0.353233	1.525338	18.153787	0.316843	27.845714	-6.729327	0.000000	0.075906	-0.087274	0.903022	0.140965	-0.116074	0.959461	0.124706	-0.212197	0.959461	0.086753	-0.212197	0.790144	0.070486	-0.177968	0.733706	0.043373	-0.135187	0.677267	0.542189	-0.987256	5.022338	0.000000	0.000000	17.447923	2.348228	-13.535271	10.799931	-3.185570	170.111881	1.001951	6.228104	11.113330	-0.979856	7.316768	-28.453672	48.386081	117.757087	59.480172	-9.810050	35.475895
1.152542	1.784327	-0.723409	88.353786	0.145530	0.884396	0.451547	5.420706	-4.719214	-22.818658	18.666207	0.325787	34.064222	18.808519	0.000000	6.963713	0.460557	1.576091	17.889187	0.312225	27.312509	-7.649003	0.000000	0.071451	-0.106227	0.902811	0.132692	-0.141282	0.959237	0.117387	-0.258281	0.959237	0.081661	-0.258281	0.789960	0.066349	-0.216618	0.733534	0.040827	-0.164546	0.677108	0.510367	-1.201662	5.021165	0.000000	0.000000	17.337364	2.338604	-13.608740	10.891520	-2.956621	172.602495	0.760124	6.585756	10.719329	-0.905377	7.155370	-28.612312	46.466549	123.448313	56.800463	-7.550558	36.117541
1.169492	1.749613	-0.634971	88.268692	0.145816	0.884594	0.450543	5.230290	-4.700941	-22.646439	18.563221	0.323989	34.080643	18.813990	0.000000	6.653897	0.547341	1.698923	17.644622	0.307957	26.767374	-8.569578	0.000000	0.066234	-0.120340	0.907556	0.123003	-0.160052	0.964278	0.108816	-0.292594	0.964278	0.075699	-0.292594	0.794111	0.061505	-0.245396	0.737389	0.037846	-0.186406	0.680667	0.473103	-1.361305	5.047552	0.000000	0.000000	17.236632	2.244690	-13.782758	10.922183	-2.781075	174.608237	0.582662	6.920677	10.408328	-0.791764	7.340486	-28.466485	44.476996	128.745084	55.358024	-4.656798	35.708054
1.186441	1.743882	-0.537768	88.287802	0.145922	0.884814	0.449586	5.007269	-4.660903	-22.581130	18.440625	0.321850	34.077292	18.816428	0.000000	6.362806	0.613603	1.885629	17.434150	0.304283	26.250993	-9.417248	0.000000	0.060186	-0.129263	0.908822	0.111771	-0.171920	0.965624	0.098879	-0.314290	0.965624	0.068786	-0.314290	0.795219	0.055889	-0.263593	0.738418	0.034390	-0.200228	0.681617	0.429901	-1.462249	5.054596	0.000000	0.000000	17.171406	2.039448	-13.954208	10.909061	-2.660404	176.034745	0.497856	7.257582	10.165140	-0.635386	7.876675	-28.004822	42.358270	133.528685	55.145533	-1.477503	34.381469
1.203390	1.765641	-0.448975	88.371867	0.145930	0.885053	0.448647	4.772664	-4.594356	-22.581284	18.290865	0.319236	34.043445	18.820459	0.000000	6.099767	0.656731	2.127011	17.250128	0.301072	25.768326	-10.220427	0.000000	0.056810	-0.133292	0.913737	0.105502	-0.177278	0.970845	0.093333	-0.324086	0.970845	0.064928	-0.324086	0.799520	0.052754	-0.271809	0.742411	0.032461	-0.206469	0.685303	0.405789	-1.507823	5.081930	0.000000	0.000000	17.129116	1.733838	-14.180985	10.832118	-2.591745	176.829549	0.486441	7.548571	10.013777	-0.489057	8.785504	-27.235681	40.123312	137.704353	55.957192	1.893836	32.288031
